<?xml version="1.0" encoding="UTF-8"?>
<svg width="120" height="120" version="1.1" viewBox="0 0 120 120" xmlns="http://www.w3.org/2000/svg"><g transform="translate(-685.43 240)"><g transform="matrix(.68182 0 0 .68182 218.09 -76.364)"><rect x="685.43" y="-240" width="176" height="176" fill="#0d5cff"/><path d="m740.17-199.27v9.3362h24.507v10.738c1.3969 0.17825 2.7297 0.44248 3.9706 0.77497l5.3656 1.4383v-12.951h31.51v-9.3362zm21.006 26.842c-10.796 0-19.812 8.3415-20.897 18.873-0.0724 0.70208-0.10935 1.4137-0.10935 2.1335 0 11.516 9.4906 21.006 21.006 21.006h24.507c6.0111 0 11.007 4.6218 11.609 10.483 0.04 0.39073 0.0615 0.78679 0.0615 1.1875 0 6.4118-5.2584 11.67-11.67 11.67s-11.67-5.2584-11.67-11.67v-4.6681h-9.3362v4.6681c0 11.516 9.4906 21.006 21.006 21.006s21.006-9.4906 21.006-21.006c0-0.71974-0.0374-1.4314-0.10935-2.1335-1.085-10.531-10.101-18.873-20.897-18.873h-24.507c-6.4118 0-11.67-5.2584-11.67-11.67 0-0.40074 0.0215-0.79681 0.0615-1.1875 0.60126-5.8609 5.5976-10.483 11.609-10.483 1.0712 0 2.153 0.16199 3.2412 0.45359l41.106 11.014v-9.6644l-38.69-10.366c-1.7456-0.46776-3.646-0.7727-5.6573-0.7727zm3.5011 17.111v8.5635h9.3362v-6.063z" color="#000000" color-rendering="auto" dominant-baseline="auto" fill="#fff" image-rendering="auto" shape-rendering="auto" solid-color="#000000" stop-color="#000000" style="font-feature-settings:normal;font-variant-alternates:normal;font-variant-caps:normal;font-variant-east-asian:normal;font-variant-ligatures:normal;font-variant-numeric:normal;font-variant-position:normal;font-variation-settings:normal;inline-size:0;isolation:auto;mix-blend-mode:normal;shape-margin:0;shape-padding:0;text-decoration-color:#000000;text-decoration-line:none;text-decoration-style:solid;text-indent:0;text-orientation:mixed;text-transform:none;white-space:normal"/></g></g></svg>
